<?xml version="1.0" encoding="utf-8"?>
<!-- Generator: Adobe Illustrator 23.0.1, SVG Export Plug-In . SVG Version: 6.00 Build 0)  -->
<svg version="1.1" id="Layer_1" xmlns="http://www.w3.org/2000/svg" xmlns:xlink="http://www.w3.org/1999/xlink" x="0px" y="0px"
	 viewBox="0 0 113.67 113.77" style="enable-background:new 0 0 113.67 113.77;" xml:space="preserve">
<style type="text/css">
	.st0{fill:#00B8E2;}
</style>
<g id="ico_x5F_add_x5F_rnd_x5F_lg">
	<path class="st0" d="M56.84,8.88c-26.51,0-48,21.49-48,48c0,26.51,21.49,48,48,48c26.51,0,48-21.49,48-48
		C104.84,30.37,83.35,8.88,56.84,8.88z M87.1,58.55c0,2.2-1.8,4-4,4h-17c-2.2,0-4,1.8-4,4v18c0,2.2-1.8,4-4,4h-2c-2.2,0-4-1.8-4-4
		v-18c0-2.2-1.8-4-4-4h-17c-2.2,0-4-1.8-4-4v-2c0-2.2,1.8-4,4-4h17c2.2,0,4-1.8,4-4v-16c0-2.2,1.8-4,4-4h2c2.2,0,4,1.8,4,4v16
		c0,2.2,1.8,4,4,4h17c2.2,0,4,1.8,4,4V58.55z"/>
</g>
</svg>
