<?xml version="1.0" encoding="utf-8"?>
<!-- Generator: Adobe Illustrator 20.1.0, SVG Export Plug-In . SVG Version: 6.00 Build 0)  -->
<svg version="1.1" id="Calque_1" xmlns="http://www.w3.org/2000/svg" xmlns:xlink="http://www.w3.org/1999/xlink" x="0px" y="0px"
	 viewBox="0 0 63 64.5" style="enable-background:new 0 0 63 64.5;" xml:space="preserve">
<style type="text/css">
	.st0{fill:#FFFFFF;}
</style>
<g id="_x23_3a73b8ff">
	<path class="st0" d="M29.2,3.5C34.9,3,40.8,4.4,46,7.4c4,2.3,7.6,5.7,10.1,9.6c3.1,4.8,4.8,10.6,4.8,16.2c-0.1,6-1.9,11.9-5.5,16.8
		c-3.6,5-8.7,8.8-14.5,10.8c-5.1,1.8-10.8,2-16.1,0.9c-5.6-1.2-10.7-4.1-14.7-8.2c-4.2-4.3-7-10-7.9-16C1.2,32,2,26.5,4.1,21.5
		c1.9-4.7,5-8.7,9-11.8C17.7,6.1,23.3,3.9,29.2,3.5 M29,4.9c-3.4,0.2-6.9,1.2-9.9,2.7C14.1,10,9.8,13.9,7,18.8
		c-4.1,7-5,15.8-2.2,23.5c1.8,5,4.9,9.5,9.1,12.7c4.8,3.7,10.8,5.9,16.9,5.9c4.4,0.1,9-0.9,12.9-2.9c5.1-2.6,9.3-6.6,12-11.6
		c2.8-4.9,3.9-10.7,3.3-16.4c-0.8-9.1-6.5-17.5-14.6-21.8C39.9,5.6,34.5,4.5,29,4.9z"/>
	<path class="st0" d="M24.2,7.6c4.9-1.3,10.2-1.3,15,0.2c0.2,0.1,0.3,0.2,0.6,0.3c-0.8-0.1-1.6-0.4-2.3-0.6c-2-0.4-4-0.6-6-0.3
		c-1.2,0.2-2.6,0.7-3.4,1.8c-0.6,0.8-0.7,2,0.1,2.8c0.8,0.8,2.1,0.8,3,0.1c1-0.8,2-1.7,3.2-1.9c2.6-0.7,5.2-0.1,7.7,0.6
		c3,0.8,5.8,2.3,8.1,4.3c3.8,3.4,6.1,8.2,7,13.1c0.8,4.2,0.6,8.7-0.8,12.8c-0.1,0.2-0.2,0.3-0.3,0.3c0.8-2.8,1.3-5.8,0.8-8.7
		c-0.3-1.4-1-3-2.4-3.4c-1.1-0.4-2.4,0.3-2.6,1.6c-0.2,1.3,0.9,2.2,1.6,3.2c1.4,2,1.2,4.7,0.9,7c-0.7,3.2-1.7,6.5-3.7,9.1
		c-3,4.2-7.7,7.1-12.7,8.3c-4.3,1-9,1-13.3-0.1c-0.6-0.2-1.2-0.2-1.7-0.7c0.8,0,1.6,0.3,2.4,0.4c2.2,0.4,4.6,0.7,6.8,0.1
		c1-0.3,2-0.8,2.7-1.7c0.6-0.8,0.6-2-0.2-2.8c-0.7-0.7-1.7-0.8-2.4-0.3c-0.9,0.6-1.7,1.3-2.7,1.8c-1.9,0.9-4.2,0.8-6.2,0.4
		c-3.4-0.7-6.9-1.9-9.6-4.1c-3.7-2.9-6.2-7-7.5-11.5C4.8,35.3,4.8,30.3,6,25.6c0.2-0.4,0.1-1.2,0.7-1.4c-0.7,2.7-1.3,5.5-0.8,8.2
		c0.2,1.2,0.7,2.6,1.7,3.3c0.7,0.6,1.8,0.8,2.6,0.2c0.8-0.4,1.1-1.7,0.7-2.6c-0.4-0.9-1.2-1.7-1.7-2.6c-1-1.9-0.9-4.1-0.7-6.1
		c0.6-3.2,1.7-6.5,3.7-9.2C14.8,11.7,19.4,8.8,24.2,7.6 M24.8,17.5c-1.6,0.9-2.7,2.4-3.6,4c-0.9,1.7-1.2,3.4-1.3,5.2
		c-0.8-0.1-1.4-0.7-1.6-1.4c-0.3-1.1,0-2.3,0.2-3.4c0.1-0.3-0.2-0.6-0.3-0.8c-0.7-0.1-1.3,0.3-1.7,0.9c-0.9,1.7-0.8,4,0.4,5.5
		c0.7,0.9,1.9,1.3,3,1.4c0.4,1.2,1.1,2.3,2.3,2.8c1.4,0.6,3.1,0,4.3-0.8c-0.1,0.4-0.1,0.9-0.2,1.4c-0.4,0.3-1,0.6-1.6,0.9
		c-2.4,1.3-5,2.7-7,4.6c-1.4,1.4-2.6,3.2-2.8,5.3c-0.1,1.7,0.6,3.4,2,4.3c1.6,1,3.6,0.9,5.1,0.3c2-0.8,3.7-2.6,4.7-4.4
		c1.6-2.7,1.8-5.9,2-8.9c0.1-0.3,0-0.9,0.4-1c2.4-1.4,4.9-2.9,7.1-4.6c0.3,0.3,0.6,0.7,0.8,1c-1.2,0.7-2.3,1.4-3.2,2.6
		c-3.3,3.7-3.4,9.9,0.1,13.5c1.8,1.9,4.6,2.7,7,2.3c2.3-0.3,4.4-1.8,5.7-3.8c1.6-2.6,1.3-6.2-0.7-8.5c-1.9-2.1-5.7-2-7.5,0.1
		c-1.4,1.6-1.6,4.2,0,5.8c0.7,0.7,1.7,1,2.4,0.4c0.6-0.3,0.4-1.1,0.1-1.6c-0.6-0.7-1.2-1.3-1-2.2c0.2-1.2,1.4-1.9,2.6-1.6
		c0.9,0.1,1.7,0.9,2,1.7c0.8,1.9,0.3,4.3-1.1,5.8c-1.6,1.6-4.2,1.9-6.1,0.7c-1.7-1-2.6-2.9-2.9-4.8c-0.3-2.3,0.1-4.7,1.6-6.6
		c0.9-1.2,2.1-2.1,3.7-2.4c1.2,0.1,2.4,0.3,3.7-0.1c0.6-0.2,1.1-0.8,0.8-1.4c-0.4-0.6-1.2-0.7-1.8-0.9c-0.9-0.2-1.9,0.1-2.8,0.2
		c-0.7-0.2-1-0.9-1.2-1.4c1.8-1.3,3.6-2.8,4.8-4.7c0.7-1.2,1.2-2.6,0.8-3.9c-0.2-0.9-1-1.7-1.9-1.8c-1.6-0.4-3.1,0.4-4.2,1.6
		c-1.7,1.8-2.6,4.3-2.4,6.9c0,0.6,0.2,1,0.1,1.6c-1.3,1-2.7,1.9-4,2.8c-0.8,0.4-1.6,1-2.3,1.3c0-0.8,0.1-1.6,0.3-2.3
		c0.6-0.8,1.3-1.6,1.8-2.4c0.3-0.7,0.7-1.4,0.3-2.1c-0.3-0.6-1-0.4-1.6-0.2c-1,0.6-1.6,1.6-2,2.7c-0.3,0.7-0.3,1.4-0.9,1.9
		c-0.8,0.8-1.9,1.4-3,1.4c-0.7,0-1.1-0.7-1.3-1.2c1.9-0.7,3.4-2,4.7-3.6s2.1-3.2,2.2-5.2c0.1-1-0.2-2-1.1-2.6
		C27.3,16.7,25.9,16.9,24.8,17.5z"/>
	<path class="st0" d="M25.9,19.3c0.4-0.3,1.2-0.2,1.3,0.3c0.2,0.7-0.1,1.3-0.3,1.9c-0.8,1.6-2,3-3.3,4.1c-0.3,0.3-0.7,0.6-1.1,0.7
		c0.1-1.4,0.6-2.8,1.2-4.1C24.2,21.1,24.8,19.9,25.9,19.3z"/>
	<path class="st0" d="M39.8,19.8c0.4-0.4,1-0.9,1.7-0.6s0.3,1.2,0.1,1.8c-0.9,1.7-2.1,3-3.7,4.1C37.8,23.3,38.6,21.3,39.8,19.8z"/>
	<path class="st0" d="M20.7,38.5c1.7-1.4,3.6-2.6,5.5-3.6c-0.2,2.1-0.7,4.3-1.6,6.3c-0.7,1.7-1.8,3.3-3.6,4c-0.9,0.3-2,0.6-2.9-0.2
		c-0.8-0.7-0.7-1.8-0.4-2.7C18.4,40.9,19.5,39.6,20.7,38.5z"/>
</g>
</svg>
